<?xml version="1.0" encoding="utf-8"?>
<!-- Generator: Adobe Illustrator 26.0.2, SVG Export Plug-In . SVG Version: 6.00 Build 0)  -->
<svg version="1.1" id="Layer_1" xmlns="http://www.w3.org/2000/svg" xmlns:xlink="http://www.w3.org/1999/xlink" x="0px" y="0px"
	 viewBox="0 0 50 50" style="enable-background:new 0 0 50 50;" xml:space="preserve">
<style type="text/css">
	.st0{fill:#FFFFFF;}
</style>
<rect class="st0" width="50" height="50"/>
<g>
	<g>
		<g>
			<path d="M43.3,26.8l-10.4-5.4v-0.8h2.3c0.3,0,0.6-0.2,0.7-0.6c0.1-0.3,0-0.7-0.3-0.9l-9.7-6V9.8h1.5c0.4,0,0.8-0.3,0.8-0.8
				c0-0.4-0.3-0.8-0.8-0.8H26V7.5c0-0.4-0.3-0.8-0.8-0.8S24.4,7,24.4,7.5v0.8h-1.5c-0.4,0-0.8,0.3-0.8,0.8s0.3,0.8,0.8,0.8h1.5v3.4
				l-9.7,6c-0.3,0.2-0.4,0.5-0.3,0.9c0.1,0.3,0.4,0.6,0.7,0.6h2.3v0.8L7.1,26.9c-0.3,0.1-0.4,0.4-0.4,0.7v12.4
				c0,0.4,0.3,0.8,0.8,0.8h10V43c0,0.4,0.3,0.8,0.8,0.8h3.1c0.4,0,0.8-0.3,0.8-0.8V31.4c0-1.7,1.4-3.1,3.1-3.1s3.1,1.4,3.1,3.1V43
				c0,0.4,0.3,0.8,0.8,0.8h3.1c0.4,0,0.8-0.3,0.8-0.8v-2.3h10c0.4,0,0.8-0.3,0.8-0.8V27.5C43.7,27.2,43.6,27,43.3,26.8z M17.5,39.1
				H8.2V28l9.3-4.8V39.1z M32.2,19c-0.4,0-0.8,0.3-0.8,0.8v22.4h-1.5V31.4c0-2.6-2.1-4.6-4.6-4.6s-4.6,2.1-4.6,4.6v10.8H19v-2.3
				c0,0,0,0,0,0v-18c0,0,0,0,0,0v-2.1c0-0.4-0.3-0.8-0.8-0.8h-0.4l7.3-4.5l7.3,4.5H32.2z M42.2,39.1h-9.3V23.2l9.3,4.8V39.1z"/>
			<path d="M35.3,36h4.6c0.4,0,0.8-0.3,0.8-0.8v-3.9c0-1.7-1.4-3.1-3.1-3.1c-1.7,0-3.1,1.4-3.1,3.1v3.9C34.5,35.7,34.8,36,35.3,36z
				 M36,31.4c0-0.9,0.7-1.5,1.5-1.5s1.5,0.7,1.5,1.5v3.1H36V31.4z"/>
			<path d="M10.6,36h4.6c0.4,0,0.8-0.3,0.8-0.8v-3.9c0-1.7-1.4-3.1-3.1-3.1s-3.1,1.4-3.1,3.1v3.9C9.8,35.7,10.1,36,10.6,36z
				 M11.3,31.4c0-0.9,0.7-1.5,1.5-1.5c0.9,0,1.5,0.7,1.5,1.5v3.1h-3.1V31.4z"/>
		</g>
	</g>
</g>
</svg>
