<?xml version="1.0" encoding="utf-8"?>
<!-- Generator: Adobe Illustrator 26.0.2, SVG Export Plug-In . SVG Version: 6.00 Build 0)  -->
<svg version="1.1" id="Layer_1" xmlns="http://www.w3.org/2000/svg" xmlns:xlink="http://www.w3.org/1999/xlink" x="0px" y="0px"
	 viewBox="0 0 50 50" style="enable-background:new 0 0 50 50;" xml:space="preserve">
<style type="text/css">
	.st0{fill:#FFFFFF;}
</style>
<rect x="-4.2" class="st0" width="54.7" height="50.9"/>
<g>
	<g>
		<path d="M44,17.3h-8.6v-9c0-0.4-0.3-0.8-0.8-0.8H16c-0.4,0-0.8,0.3-0.8,0.8v9H6.6c-0.4,0-0.8,0.3-0.8,0.8v24.6
			c0,0.4,0.3,0.8,0.8,0.8H44c0.4,0,0.8-0.3,0.8-0.8V18C44.7,17.6,44.4,17.3,44,17.3z M15.2,41.8H7.4v-23h7.8V41.8z M28.2,41.8h-2.1
			v-2.1c0-0.4-0.3-0.8-0.8-0.8c-0.4,0-0.8,0.3-0.8,0.8v2.1h-2.1V36h5.7V41.8z M33.8,41.8h-4.1l0,0v-6.6c0-0.4-0.3-0.8-0.8-0.8h-7.3
			c-0.4,0-0.8,0.3-0.8,0.8v6.6h-4.1V9.1h17.1V41.8z M43.2,41.8h-7.8v-23h7.8V41.8L43.2,41.8z"/>
	</g>
</g>
<g>
	<g>
		<path d="M23.5,18.4h-4.4c-0.4,0-0.8,0.3-0.8,0.8v4.4c0,0.4,0.3,0.8,0.8,0.8h4.4c0.4,0,0.8-0.3,0.8-0.8v-4.4
			C24.3,18.7,24,18.4,23.5,18.4z M22.8,22.8h-2.9v-2.9h2.9L22.8,22.8L22.8,22.8z"/>
	</g>
</g>
<g>
	<g>
		<path d="M31.5,18.4H27c-0.4,0-0.8,0.3-0.8,0.8v4.4c0,0.4,0.3,0.8,0.8,0.8h4.4c0.4,0,0.8-0.3,0.8-0.8v-4.4
			C32.2,18.7,31.9,18.4,31.5,18.4z M30.7,22.8h-2.9v-2.9h2.9V22.8z"/>
	</g>
</g>
<g>
	<g>
		<path d="M41.4,19.9h-4.3c-0.4,0-0.8,0.3-0.8,0.8v4.3c0,0.4,0.3,0.8,0.8,0.8h4.3c0.4,0,0.8-0.3,0.8-0.8v-4.3
			C42.2,20.2,41.8,19.9,41.4,19.9z M40.6,24.2h-2.7v-2.7h2.7V24.2z"/>
	</g>
</g>
<g>
	<g>
		<path d="M41.4,27.5h-4.3c-0.4,0-0.8,0.3-0.8,0.8v4.3c0,0.4,0.3,0.8,0.8,0.8h4.3c0.4,0,0.8-0.3,0.8-0.8v-4.3
			C42.2,27.8,41.8,27.5,41.4,27.5z M40.6,31.7h-2.7V29h2.7V31.7z"/>
	</g>
</g>
<g>
	<g>
		<path d="M41.4,35h-4.3c-0.4,0-0.8,0.3-0.8,0.8v4.3c0,0.4,0.3,0.8,0.8,0.8h4.3c0.4,0,0.8-0.3,0.8-0.8v-4.3
			C42.2,35.4,41.8,35,41.4,35z M40.6,39.3h-2.7v-2.7h2.7V39.3z"/>
	</g>
</g>
<g>
	<g>
		<path d="M13.4,19.9H9.2c-0.4,0-0.8,0.3-0.8,0.8v4.3c0,0.4,0.3,0.8,0.8,0.8h4.3c0.4,0,0.8-0.3,0.8-0.8v-4.3
			C14.2,20.2,13.9,19.9,13.4,19.9z M12.7,24.2H9.9v-2.7h2.7V24.2z"/>
	</g>
</g>
<g>
	<g>
		<path d="M13.4,27.5H9.2c-0.4,0-0.8,0.3-0.8,0.8v4.3c0,0.4,0.3,0.8,0.8,0.8h4.3c0.4,0,0.8-0.3,0.8-0.8v-4.3
			C14.2,27.8,13.9,27.5,13.4,27.5z M12.7,31.7H9.9V29h2.7V31.7z"/>
	</g>
</g>
<g>
	<g>
		<path d="M13.4,35H9.2c-0.4,0-0.8,0.3-0.8,0.8v4.3c0,0.4,0.3,0.8,0.8,0.8h4.3c0.4,0,0.8-0.3,0.8-0.8v-4.3
			C14.2,35.4,13.9,35,13.4,35z M12.7,39.3H9.9v-2.7h2.7V39.3z"/>
	</g>
</g>
<g>
	<g>
		<path d="M23.5,26.2h-4.4c-0.4,0-0.8,0.3-0.8,0.8v4.4c0,0.4,0.3,0.8,0.8,0.8h4.4c0.4,0,0.8-0.3,0.8-0.8V27
			C24.3,26.6,24,26.2,23.5,26.2z M22.8,30.7h-2.9v-2.9h2.9L22.8,30.7L22.8,30.7z"/>
	</g>
</g>
<g>
	<g>
		<path d="M31.5,26.2H27c-0.4,0-0.8,0.3-0.8,0.8v4.4c0,0.4,0.3,0.8,0.8,0.8h4.4c0.4,0,0.8-0.3,0.8-0.8V27
			C32.2,26.6,31.9,26.2,31.5,26.2z M30.7,30.7h-2.9v-2.9h2.9V30.7z"/>
	</g>
</g>
<g>
	<g>
		<path d="M25.3,36.7c-0.4,0-0.8,0.3-0.8,0.8v0.1c0,0.4,0.3,0.8,0.8,0.8c0.4,0,0.8-0.3,0.8-0.8v-0.1C26.1,37.1,25.7,36.7,25.3,36.7z
			"/>
	</g>
</g>
<g>
	<g>
		<path d="M26.8,11c-0.3,0-0.6,0.1-0.6,0.4v1.9h-1.6v-1.9c0-0.3-0.3-0.4-0.6-0.4c-0.3,0-0.6,0.1-0.6,0.4v5c0,0.3,0.3,0.4,0.6,0.4
			c0.3,0,0.6-0.1,0.6-0.4v-2.1h1.6v2.1c0,0.3,0.3,0.4,0.6,0.4c0.3,0,0.6-0.1,0.6-0.4v-5C27.4,11.1,27.1,11,26.8,11z"/>
	</g>
</g>
</svg>
