<?xml version="1.0" encoding="utf-8"?>
<!-- Generator: Adobe Illustrator 26.0.2, SVG Export Plug-In . SVG Version: 6.00 Build 0)  -->
<svg version="1.1" id="Layer_1" xmlns="http://www.w3.org/2000/svg" xmlns:xlink="http://www.w3.org/1999/xlink" x="0px" y="0px"
	 viewBox="0 0 50.1 50.1" style="enable-background:new 0 0 50.1 50.1;" xml:space="preserve">
<style type="text/css">
	.st0{fill:#FFFFFF;}
	.st1{fill-opacity:0;}
</style>
<rect x="0" y="0" class="st0" width="50.4" height="50.4"/>
<path d="M43.4,14.7c-0.2-1-0.9-1.9-2-2.1l-6.1-1.3c-1.3-0.3-2.7,0-3.8,0.8l-18,13.1l-5-0.2c-1.1,0-2,0.8-2,1.9
	c0,0.6,0.2,1.2,0.7,1.6l5.2,4.1c0.6,0.8,1,0.6,11.4-5l1,9.8c0,0.5,0.4,1,0.9,1.2c0.2,0.1,0.4,0.1,0.6,0.1c0.4,0,0.8-0.2,1-0.4
	l2.5-2.3c0.2-0.2,0.4-0.5,0.5-0.9l2.3-12.4c3.7-2.1,7.2-4,9.7-5.5C43,16.8,43.5,15.7,43.4,14.7z M41.1,15.5
	c-2.6,1.5-6.2,3.5-10.1,5.7l-0.4,0.2l-2.4,13.2l-1.5,1.4l-1.1-11.7l-1.4,0.7c-7.4,4.2-9.9,5.4-10.8,5.7l-4.5-3.5l5.3,0.2l18.7-13.6
	c0.6-0.4,1.4-0.6,2.1-0.5l6.1,1.3c0.2,0,0.3,0.2,0.4,0.4C41.3,15.2,41.3,15.4,41.1,15.5z"/>
<path d="M13.5,19.2l3.7,1l1.7-1.2l-4.2-1.2l1.9-1.1l5.7-0.2l2.4-1.7L16.6,15c-0.3,0-0.5,0-0.7,0.2l-2.7,1.6
	c-0.6,0.4-0.8,1.2-0.5,1.8C12.9,18.9,13.1,19.2,13.5,19.2z"/>
<rect x="6.4" y="6.4" class="st1" width="37" height="37"/>
</svg>
